<?xml version="1.0" encoding="utf-8"?>
<!-- Generator: Adobe Illustrator 23.1.0, SVG Export Plug-In . SVG Version: 6.00 Build 0)  -->
<svg version="1.0" id="Layer_1" xmlns="http://www.w3.org/2000/svg" xmlns:xlink="http://www.w3.org/1999/xlink" x="0px" y="0px"
	 viewBox="0 0 100 100" style="enable-background:new 0 0 100 100;" xml:space="preserve">
<style type="text/css">
	.st0{fill:#EBAB20;}
	.st1{fill:#E11465;}
	.st2{fill:#72C9DF;}
	.st3{fill:#37B98F;}
</style>
<g>
	<g>
		<path class="st0" d="M69.1,77.7c7-0.9,12.6-5.1,15.2-11.7c1.5-3.8,1.1-8.1,1.1-12.2c0-1.6,0-3.1,0-4.7c0-4.3-6.7-4.3-6.7,0
			c0,3.5,0,7.1,0,10.6c0,0.4,0,0.8,0,1.2c0,0.4,0,0.5,0,0.2c0,0.2-0.1,0.5-0.1,0.7c-0.1,0.5-0.2,0.9-0.3,1.3
			c-0.1,0.4-0.3,0.9-0.5,1.3c0.2-0.5-0.2,0.4-0.2,0.4c-0.2,0.4-0.4,0.8-0.7,1.2c-0.1,0.1-0.8,1.1-0.5,0.7c-1.2,1.4-2,2.1-3.4,2.9
			c-0.8,0.5-1,0.6-1.7,0.8c-0.4,0.1-0.9,0.3-1.3,0.4c-0.1,0-1.4,0.3-0.8,0.2c-1.8,0.2-3.4,1.4-3.4,3.4C65.7,76,67.3,78,69.1,77.7
			L69.1,77.7z"/>
	</g>
	<g>
		<path class="st1" d="M14.6,49.2c0,2.3,0,4.6,0,6.9c0,2.9-0.1,5.8,0.6,8.6c1.3,4.6,4.4,8.6,8.6,11c3.2,1.8,6.7,2.3,10.3,2.3
			c2.7,0,5.4,0,8.1,0c-1.1-1.1-2.2-2.2-3.4-3.4c0,5.1,0,10.1,0,15.2c0,2.9,3.7,4.5,5.8,2.4c5.2-5.2,10.5-10.5,15.7-15.7
			c3.1-3.1-1.7-7.8-4.8-4.8C50.2,76.8,45,82,39.7,87.3c1.9,0.8,3.8,1.6,5.8,2.4c0-5.1,0-10.1,0-15.2c0-1.8-1.5-3.4-3.4-3.4
			c-2.1,0-4.3,0-6.4,0c-2.8,0-4.9,0.1-7.3-0.8c-2.9-1.1-5.6-4-6.5-7c-0.7-2.2-0.5-4.3-0.5-6.8c0-2.5,0-4.9,0-7.4
			C21.3,44.8,14.6,44.8,14.6,49.2L14.6,49.2z"/>
	</g>
	<g>
		<path class="st2" d="M85.4,35.7c0-2.4,0-4.7,0-7.1c0-3,0.1-6-0.8-8.9c-1.5-4.6-4.7-8.6-9-10.7C72.3,7.4,69,7,65.5,7
			c-2.7,0-5.5,0-8.2,0c-4.3,0-4.3,6.7,0,6.7c2.2,0,4.4,0,6.5,0c1.1,0,2.2,0,3.3,0c1.7,0,2.2,0.1,3.8,0.6c1.5,0.5,3,1.4,4.2,2.5
			c0.8,0.8,1.2,1.2,1.6,1.9c0.2,0.4,0.5,0.8,0.7,1.1c0.1,0.2,0.3,0.5,0.4,0.7c0.1,0.2,0.1,0.2,0,0c0.1,0.2,0.1,0.3,0.2,0.5
			c0.2,0.5,0.3,1,0.4,1.5c0,0.2,0.3,1.3,0.2,0.8c0.1,0.6,0.1,1.3,0.1,1.9c0,1,0,2,0,3c0,2.5,0,5,0,7.5C78.7,40,85.4,40,85.4,35.7
			L85.4,35.7z"/>
	</g>
	<g>
		<path class="st3" d="M42.7,7c-2.4,0-4.8,0-7.1,0c-3.1,0-6.3,0-9.3,1.1C21.7,9.9,17.9,13.4,16,18c-1.3,3.1-1.4,6.2-1.4,9.5
			c0,2.7,0,5.5,0,8.2c0,4.3,6.7,4.3,6.7,0c0-2.2,0-4.3,0-6.5c0-1.2,0-2.4,0-3.7c0-0.2,0-0.4,0-0.6c0-0.5,0-0.9,0.1-1.4
			c0-0.1,0.1-0.7,0-0.1c0.1-0.3,0.1-0.7,0.2-1c0.1-0.4,0.2-0.9,0.4-1.3c0,0.1,0.4-0.9,0.2-0.5C22,21,22.5,20,22.4,20.1
			c0.2-0.4,0.4-0.8,0.7-1.2c0.1-0.2,0.2-0.4,0.4-0.6c0.4-0.6-0.2,0.1,0.3-0.4c1.5-1.7,2.4-2.4,4.4-3.4c0.5-0.2-0.4,0.1,0.1-0.1
			c0.3-0.1,0.5-0.2,0.8-0.3c0.4-0.1,0.9-0.3,1.3-0.4c0.2,0,0.4-0.1,0.7-0.1c-0.6,0.1,0.2,0,0.3,0c0.4,0,0.8,0,1.2-0.1
			c0.8,0,1.7,0,2.5,0c2.5,0,5.1,0,7.6,0C47,13.7,47,7,42.7,7L42.7,7z"/>
	</g>
	<circle class="st3" cx="34.2" cy="26.7" r="5.6"/>
	<circle class="st1" cx="34.2" cy="57" r="5.6"/>
	<circle class="st0" cx="64.6" cy="57" r="5.6"/>
	<circle class="st2" cx="64.6" cy="26.7" r="5.6"/>
</g>
</svg>
