<?xml version="1.0" encoding="utf-8"?>
<!-- Generator: Adobe Illustrator 23.1.0, SVG Export Plug-In . SVG Version: 6.00 Build 0)  -->
<svg version="1.1" id="Layer_1" xmlns="http://www.w3.org/2000/svg" xmlns:xlink="http://www.w3.org/1999/xlink" x="0px" y="0px"
	 viewBox="0 0 100 100" style="enable-background:new 0 0 100 100;" xml:space="preserve">
<style type="text/css">
	.st0{fill:#72C9DF;}
	.st1{fill:#37B98F;}
	.st2{fill:#E11465;}
	.st3{fill:#EBAB20;}
</style>
<g>
	<path class="st0" d="M92.9,41.9c0-2.9,0-5.7,0-8.6c0-3.6,0.1-7.3-1-10.8c-1.8-5.6-5.7-10.4-10.9-13c-4-1.9-8-2.4-12.2-2.4
		c-3.3,0-6.7,0-9.9,0c-5.2,0-5.2,8.1,0,8.1c2.7,0,5.3,0,7.9,0c1.3,0,2.7,0,4,0c2.1,0,2.7,0.1,4.6,0.7c1.8,0.6,3.6,1.7,5.1,3
		c1,1,1.5,1.5,1.9,2.3c0.2,0.5,0.6,1,0.8,1.3c0.1,0.2,0.4,0.6,0.5,0.8s0.1,0.2,0,0c0.1,0.2,0.1,0.4,0.2,0.6c0.2,0.6,0.4,1.2,0.5,1.8
		c0,0.2,0.4,1.6,0.2,1c0.1,0.7,0.1,1.6,0.1,2.3c0,1.2,0,2.4,0,3.6c0,3,0,6.1,0,9.1C84.8,47.1,92.9,47.1,92.9,41.9L92.9,41.9z"/>
</g>
<g>
	<path class="st1" d="M41.2,7.1c-2.9,0-5.8,0-8.6,0c-3.8,0-7.6,0-11.3,1.3c-5.6,2.2-10.2,6.4-12.5,12C7.2,24.2,7.1,28,7.1,32
		c0,3.3,0,6.7,0,9.9c0,5.2,8.1,5.2,8.1,0c0-2.7,0-5.2,0-7.9c0-1.5,0-2.9,0-4.5c0-0.2,0-0.5,0-0.7c0-0.6,0-1.1,0.1-1.7
		c0-0.1,0.1-0.8,0-0.1c0.1-0.4,0.1-0.8,0.2-1.2c0.1-0.5,0.2-1.1,0.5-1.6c0,0.1,0.5-1.1,0.2-0.6c-0.2,0.5,0.4-0.7,0.2-0.6
		c0.2-0.5,0.5-1,0.8-1.5c0.1-0.2,0.2-0.5,0.5-0.7c0.5-0.7-0.2,0.1,0.4-0.5c1.8-2.1,2.9-2.9,5.3-4.1c0.6-0.2-0.5,0.1,0.1-0.1
		c0.4-0.1,0.6-0.2,1-0.4c0.5-0.1,1.1-0.4,1.6-0.5c0.2,0,0.5-0.1,0.8-0.1c-0.7,0.1,0.2,0,0.4,0c0.5,0,1,0,1.5-0.1c1,0,2.1,0,3,0
		c3,0,6.2,0,9.2,0C46.4,15.2,46.4,7.1,41.2,7.1L41.2,7.1z"/>
</g>
<g>
	<circle class="st1" cx="30" cy="30" r="7.2"/>
	<circle class="st0" cx="70" cy="30" r="7.2"/>
</g>
<g>
	<path class="st2" d="M7.1,58.1c0,2.9,0,5.7,0,8.6c0,3.6-0.1,7.3,1,10.8c1.8,5.6,5.7,10.4,10.9,13c4,1.9,8,2.4,12.2,2.4
		c3.3,0,6.7,0,9.9,0c5.2,0,5.2-8.1,0-8.1c-2.7,0-5.3,0-7.9,0c-1.3,0-2.7,0-4,0c-2.1,0-2.7-0.1-4.6-0.7c-1.8-0.6-3.6-1.7-5.1-3
		c-1-1-1.5-1.5-1.9-2.3c-0.2-0.5-0.6-1-0.8-1.3c-0.1-0.2-0.4-0.6-0.5-0.8c-0.1-0.2-0.1-0.2,0,0c-0.1-0.2-0.1-0.4-0.2-0.6
		c-0.2-0.6-0.4-1.2-0.5-1.8c0-0.2-0.4-1.6-0.2-1c-0.1-0.7-0.1-1.6-0.1-2.3c0-1.2,0-2.4,0-3.6c0-3,0-6.1,0-9.1
		C15.2,52.9,7.1,52.9,7.1,58.1L7.1,58.1z"/>
</g>
<g>
	<path class="st3" d="M58.8,92.9c2.9,0,5.8,0,8.6,0c3.8,0,7.6,0,11.3-1.3c5.6-2.2,10.2-6.4,12.5-12c1.6-3.8,1.7-7.5,1.7-11.5
		c0-3.3,0-6.7,0-9.9c0-5.2-8.1-5.2-8.1,0c0,2.7,0,5.2,0,7.9c0,1.5,0,2.9,0,4.5c0,0.2,0,0.5,0,0.7c0,0.6,0,1.1-0.1,1.7
		c0,0.1-0.1,0.8,0,0.1c-0.1,0.4-0.1,0.8-0.2,1.2c-0.1,0.5-0.2,1.1-0.5,1.6c0-0.1-0.5,1.1-0.2,0.6c0.2-0.5-0.4,0.7-0.2,0.6
		c-0.2,0.5-0.5,1-0.8,1.5c-0.1,0.2-0.2,0.5-0.5,0.7c-0.5,0.7,0.2-0.1-0.4,0.5c-1.8,2.1-2.9,2.9-5.3,4.1c-0.6,0.2,0.5-0.1-0.1,0.1
		c-0.4,0.1-0.6,0.2-1,0.4c-0.5,0.1-1.1,0.4-1.6,0.5c-0.2,0-0.5,0.1-0.8,0.1c0.7-0.1-0.2,0-0.4,0c-0.5,0-1,0-1.5,0.1c-1,0-2.1,0-3,0
		c-3,0-6.2,0-9.2,0C53.6,84.8,53.6,92.9,58.8,92.9L58.8,92.9z"/>
</g>
<g>
	<circle class="st3" cx="70" cy="70" r="7.2"/>
	<circle class="st2" cx="30" cy="70" r="7.2"/>
</g>
</svg>
